<svg width="99" height="184" viewBox="0 0 99 184" fill="none" xmlns="http://www.w3.org/2000/svg">
<path d="M84.542 57.1943C87.8838 58.0037 90.3574 61.0348 90.3574 64.6377L90.3574 173.261C90.3574 177.118 87.5253 180.32 83.8271 180.844V182.585L82.7422 182.568L16.2217 181.568L15.1689 181.553V179.844C11.4728 179.32 8.64063 176.118 8.64062 172.261L8.64063 63.6377C8.64063 60.0352 11.1141 57.004 14.4541 56.1943H9.09277L9.00488 55.2217V55.2178C9.00468 55.2155 9.00428 55.2122 9.00391 55.208C9.0031 55.199 9.00253 55.1855 9.00098 55.168C8.99787 55.1328 8.99323 55.0803 8.9873 55.0117C8.97546 54.8746 8.95819 54.6719 8.93652 54.4092C8.89317 53.8834 8.83198 53.1161 8.76074 52.1475C8.61825 50.2099 8.4351 47.4657 8.27246 44.2363C7.96286 38.0888 7.72647 30.1644 7.98828 22.6934H6.75684L3.5127 25.2549L2.6582 25.9297L1.99902 25.0625L2.85059 24.416C2.06771 25.011 2.00437 25.0582 1.99902 25.0615L1.99609 25.0586C1.99502 25.0572 1.99435 25.0553 1.99316 25.0537C1.9907 25.0504 1.98732 25.047 1.98438 25.043C1.97851 25.0349 1.97147 25.0255 1.96387 25.0146C1.94865 24.9929 1.93013 24.9654 1.90918 24.9326C1.86719 24.8668 1.81439 24.7773 1.75977 24.668C1.6518 24.4517 1.528 24.14 1.46777 23.7578C1.33918 22.9416 1.52534 21.9259 2.45605 20.9863C3.22531 20.2099 4.06846 19.6613 4.87695 19.3965C5.51113 19.1888 6.3015 19.1105 6.97266 19.457H8.1416C8.36431 15.5536 8.7466 11.8472 9.36426 8.69531L9.48145 8.0957L10.0576 7.89258L10.4131 8.90039C10.0819 7.96142 10.0598 7.89707 10.0586 7.89258L10.0596 7.8916C10.0603 7.89135 10.0614 7.891 10.0625 7.89062C10.0651 7.88972 10.0687 7.88829 10.0732 7.88672C10.0825 7.88349 10.096 7.879 10.1133 7.87305C10.1479 7.8611 10.1984 7.84363 10.2646 7.82129C10.3975 7.77648 10.5936 7.71215 10.8496 7.62988C11.3617 7.46533 12.115 7.23096 13.0889 6.95117C15.0367 6.39161 17.8681 5.64776 21.416 4.9043C28.51 3.41779 38.4816 1.93164 50 1.93164C61.5333 1.93164 71.3715 3.67165 78.3291 5.41309C81.8088 6.28402 84.5711 7.15651 86.4678 7.8125C87.4157 8.14037 88.1478 8.41422 88.6455 8.60742C88.8944 8.70405 89.0855 8.7802 89.2148 8.83301C89.2793 8.85933 89.3284 8.88037 89.3623 8.89453C89.3791 8.90156 89.3922 8.90726 89.4014 8.91113C89.4058 8.91303 89.4095 8.91491 89.4121 8.91602C89.4134 8.91657 89.4152 8.91664 89.416 8.91699H89.417L88.9971 9.90039L89.417 8.91797L89.9375 9.14062L90.0459 9.69531C90.6614 12.8479 91.0282 16.5544 91.2256 20.457H92.0273C92.6979 20.1103 93.4881 20.187 94.123 20.3945C94.932 20.6591 95.7754 21.2084 96.5449 21.9863C97.4754 22.9271 97.6609 23.9432 97.5313 24.7598C97.4705 25.142 97.3467 25.4538 97.2383 25.6699C97.1835 25.7791 97.13 25.8679 97.0879 25.9336C97.0667 25.9666 97.0485 25.9948 97.0332 26.0166C97.0255 26.0275 97.0186 26.0369 97.0127 26.0449C97.0098 26.0488 97.0073 26.0524 97.0049 26.0557C97.0037 26.0573 97.0021 26.0591 97.001 26.0605L96.998 26.0635C96.9931 26.0605 96.9332 26.0151 96.1484 25.416L96.998 26.0645L96.3389 26.9277L95.4863 26.2549L92.2412 23.6934H91.3506C91.5561 31.1687 91.2384 39.0978 90.8584 45.248C90.6588 48.4779 90.443 51.2233 90.2764 53.1611C90.1931 54.1298 90.1214 54.8971 90.0713 55.4229C90.0462 55.6856 90.0263 55.8883 90.0127 56.0254C90.0059 56.0939 90.0006 56.1464 89.9971 56.1816C89.9953 56.1992 89.9941 56.2126 89.9932 56.2217C89.9927 56.2262 89.9924 56.2301 89.9922 56.2324V56.2354V56.2363L89.8926 57.1943H84.542ZM86.1826 20.457V19.3877L85.2285 20.457H86.1826ZM86.1826 38.0322V23.6934H85.0557V38.0322H86.1826ZM17.2275 13.5605C23.6584 12.5242 33.6843 12.2961 42.1816 12.3271C46.6419 12.3434 50.7092 12.4319 53.6611 12.5156C55.1372 12.5575 56.3349 12.5975 57.1641 12.6279C57.5785 12.6431 57.901 12.6562 58.1201 12.665C58.2297 12.6694 58.3137 12.6724 58.3701 12.6748C58.3922 12.6757 58.4102 12.6772 58.4238 12.6777L58.5293 12.6758C58.6222 12.6743 58.7595 12.6724 58.9375 12.6709C59.2934 12.6678 59.8138 12.6659 60.4766 12.6709C61.8023 12.681 63.6991 12.7178 65.9883 12.8271C70.3618 13.0361 76.1843 13.5106 82.21 14.5605L84.1133 10.2041C83.9587 10.1535 83.7875 10.0957 83.5977 10.0371C82.5321 9.70851 80.9083 9.2652 78.707 8.82031C74.3047 7.9306 67.5899 7.03419 58.4102 7.03418C48.9256 7.03418 37.8704 7.68552 29.1738 8.33887C24.8283 8.66533 21.0766 8.99151 18.4121 9.23633C17.2513 9.34299 16.2971 9.43601 15.5898 9.50488L17.2275 13.5605ZM14.7617 37.0322V22.6934H13.6348V37.0322H14.7617ZM14.5879 19.459L13.6348 18.3896V19.459H14.5879Z" fill="#69D6A9" stroke="#69D6A9" stroke-width="2.1375"/>
</svg>
